<svg xmlns="http://www.w3.org/2000/svg" viewBox="0 0 761 87" width="761" height="87"><defs><image width="1280" height="720" id="img1"></image></defs><style>.a{fill:#a67ecc}.b{fill:#434343}.c{fill:#a67ecc;stroke:#fff;stroke-miterlimit:100;stroke-width:6}</style><use style="display:none" href="#img1" x="-293" y="-238"></use><g style="display:none"></g><path class="a" d="m511.2 86h-17.1v-84.8h33.9v16.5h-16.8v13.5h16v16.3h-16zm41.4 0h-17.1v-84.8h26q6.5 0 9.8 3 3.3 3 4.4 8.3 1.2 5.3 1.2 12.5 0 6.9-1.8 11.1-1.7 4.1-6.6 5.7 4 0.8 5.6 4 1.6 3.1 1.6 8.1v32.1h-16.7v-33.2q0-3.7-1.5-4.5-1.5-1-4.9-1zm0.1-69.1v15.8h4.1q3.5 0 3.5-7.7 0-5-0.7-6.5-0.8-1.6-2.9-1.6zm66.8 69.1h-35.1v-84.8h33.9v16.4h-16.6v16.5h16v16h-16v19.4h17.8zm24.4 0h-16.9v-84.8h16.9v30.3h8v-30.3h16.8v84.8h-16.8v-38.4h-8zm54.5 0.7q-11.6 0-16.8-5.8-5.1-5.7-5.1-18.4v-8.2h16.8v10.6q0 2.9 0.8 4.6 1 1.6 3.2 1.6 2.3 0 3.2-1.3 0.9-1.4 0.9-4.5 0-3.9-0.8-6.5-0.8-2.6-2.7-5-1.9-2.4-5.3-5.6l-7.6-7.2q-8.5-8-8.5-18.4 0-10.9 5-16.5 5.1-5.7 14.6-5.7 11.7 0 16.5 6.2 5 6.2 5 18.9h-17.3v-5.9q0-1.7-1-2.6-1-1-2.7-1-2 0-2.9 1.1-1 1.2-1 2.9 0 1.8 1 3.9 1 2.1 3.8 4.8l9.8 9.4q2.9 2.8 5.4 5.9 2.5 3.1 3.9 7.2 1.5 4.1 1.5 10 0 12-4.4 18.8-4.4 6.7-15.3 6.7zm62.4-0.7h-35v-84.9h33.9v16.4h-16.7v16.6h16v15.9h-16v19.4h17.8z"></path><path class="b" d="m174.5 86h-16.4l8.2-84.8h28.7l8.1 84.8h-16.1l-1.2-13.7h-10.2zm5.5-70.3l-3.2 43.1h7.7l-3.7-43.1zm47.7 71.1q-18.2 0-18.2-26v-36.6q0-23.8 20.8-23.8 8.6 0 13.2 3.5 4.6 3.4 6.3 10 1.7 6.6 1.7 16.1h-16.5v-7.5q0-2.7-0.8-4.6-0.7-1.9-3.1-1.9-2.9 0-3.9 2-0.9 2-0.9 4.4v41.1q0 3.4 0.8 5.6 1 2.1 3.6 2.1 2.7 0 3.5-2.1 0.9-2.2 0.9-5.7v-12.1h-4.5v-14.7h20.7v49.4h-6.8l-2.8-7.1q-4.5 7.9-14 7.9zm67.3-0.8h-35v-84.8h33.9v16.4h-16.6v16.5h16v16h-16v19.4h17.7zm24.2 0h-16.6v-84.8h17.5l7.8 40.6v-40.6h16.3v84.8h-16.5l-8.5-42.4zm58.8 0h-17v-68.6h-10.1v-16.2h37.2v16.2h-10.1zm36.4 0.8q-10.6 0-15.7-5.9-5-6-5-17.5v-62.2h16.5v61.5q0 2.1 0.3 4.1 0.2 1.9 1.1 3.2 0.8 1.2 2.8 1.2 1.9 0 2.8-1.2 0.9-1.3 1.1-3.2 0.2-2 0.2-4.1v-61.5h16.5v62.2q0 11.5-5 17.5-5 5.9-15.6 5.9zm46.2-0.8h-17.1v-84.8h26q6.5 0 9.8 3 3.3 3 4.5 8.3 1.1 5.3 1.1 12.5 0 6.9-1.8 11.1-1.7 4.1-6.6 5.7 4 0.8 5.6 4 1.7 3.1 1.7 8.2v32h-16.8v-33.2q0-3.7-1.5-4.5-1.5-0.9-4.9-0.9zm0.1-69.2v15.8h4.1q3.5 0 3.5-7.7 0-5-0.7-6.5-0.8-1.6-2.9-1.6z"></path><path class="a" d="m128 1v85h-128v-85z"></path><path class="c" d="m115 14v59h-102v-59z"></path></svg>